solid Untitled-6400ab25
facet normal 0.0 0.0 -1.0
  outer loop
    vertex -1.99999999999999 60.0 0.0
    vertex 0.148222655642551 53.475862846196 0.0
    vertex -2.8199664825479e-015 52.35 0.0
  endloop
endfacet
facet normal 0.0 0.0 -1.0
  outer loop
    vertex 0.148222655642551 53.475862846196 0.0
    vertex -1.99999999999999 60.0 0.0
    vertex 0.582789493537691 54.525 0.0
  endloop
endfacet
facet normal 0.0 0.0 -1.0
  outer loop
    vertex 0.582789493537691 54.525 0.0
    vertex -1.99999999999999 60.0 0.0
    vertex 1.27408550183852 55.4259144981615 0.0
  endloop
endfacet
facet normal 0.0 0.0 -1.0
  outer loop
    vertex 1.27408550183852 55.4259144981615 0.0
    vertex -1.99999999999999 60.0 0.0
    vertex 2.175 56.1172105064623 0.0
  endloop
endfacet
facet normal 0.0 0.0 -1.0
  outer loop
    vertex 2.175 56.1172105064623 0.0
    vertex -1.99999999999999 60.0 0.0
    vertex 7.31540733157497 60.0 0.0
  endloop
endfacet
facet normal 0.0 0.0 -1.0
  outer loop
    vertex 2.175 56.1172105064623 0.0
    vertex 7.31540733157497 60.0 0.0
    vertex 3.22413715380404 56.5517773443575 0.0
  endloop
endfacet
facet normal 0.0 0.0 -1.0
  outer loop
    vertex 3.22413715380404 56.5517773443575 0.0
    vertex 7.31540733157497 60.0 0.0
    vertex 4.35 56.7 0.0
  endloop
endfacet
facet normal 0.0 0.0 -1.0
  outer loop
    vertex 4.35 56.7 0.0
    vertex 7.31540733157497 60.0 0.0
    vertex 5.47586284619597 56.5517773443575 0.0
  endloop
endfacet
facet normal 0.0 0.0 -1.0
  outer loop
    vertex 5.47586284619597 56.5517773443575 0.0
    vertex 7.31540733157497 60.0 0.0
    vertex 6.525 56.1172105064623 0.0
  endloop
endfacet
facet normal 0.0 0.0 -1.0
  outer loop
    vertex 6.525 56.1172105064623 0.0
    vertex 7.31540733157497 60.0 0.0
    vertex 7.42591449816149 55.4259144981615 0.0
  endloop
endfacet
facet normal 0.0 0.0 -1.0
  outer loop
    vertex 7.42591449816149 55.4259144981615 0.0
    vertex 7.31540733157497 60.0 0.0
    vertex 8.11721050646231 54.525 0.0
  endloop
endfacet
facet normal 0.0 0.0 -1.0
  outer loop
    vertex 8.11721050646231 54.525 0.0
    vertex 7.31540733157497 60.0 0.0
    vertex 43.4820739982416 -2.0 0.0
  endloop
endfacet
facet normal 0.0 0.0 -1.0
  outer loop
    vertex 8.11721050646231 54.525 0.0
    vertex 43.4820739982416 -2.0 0.0
    vertex 8.55177734435745 53.475862846196 0.0
  endloop
endfacet
facet normal 0.0 0.0 -1.0
  outer loop
    vertex 8.55177734435745 53.475862846196 0.0
    vertex 43.4820739982416 -2.0 0.0
    vertex 14.9282032302755 42.8571428571429 0.0
  endloop
endfacet
facet normal 0.0 0.0 -1.0
  outer loop
    vertex 8.55177734435745 53.475862846196 0.0
    vertex 14.9282032302755 42.8571428571429 0.0
    vertex 8.7 52.35 0.0
  endloop
endfacet
facet normal 0.0 0.0 -1.0
  outer loop
    vertex 8.7 52.35 0.0
    vertex 14.9282032302755 42.8571428571429 0.0
    vertex 13.6568542494924 44.5139971066352 0.0
  endloop
endfacet
facet normal 0.0 0.0 -1.0
  outer loop
    vertex 8.7 52.35 0.0
    vertex 13.6568542494924 44.5139971066352 0.0
    vertex 12.0 45.7853460874184 0.0
  endloop
endfacet
facet normal 0.0 0.0 -1.0
  outer loop
    vertex 8.7 52.35 0.0
    vertex 12.0 45.7853460874184 0.0
    vertex 10.0705523608202 46.5845494674554 0.0
  endloop
endfacet
facet normal 0.0 0.0 -1.0
  outer loop
    vertex 14.9282032302755 42.8571428571429 0.0
    vertex 43.4820739982416 -2.0 0.0
    vertex 15.7274066103125 40.927695217963 0.0
  endloop
endfacet
facet normal 0.0 0.0 -1.0
  outer loop
    vertex 15.7274066103125 40.927695217963 0.0
    vertex 43.4820739982416 -2.0 0.0
    vertex 16.0 38.8571428571429 0.0
  endloop
endfacet
facet normal 0.0 0.0 -1.0
  outer loop
    vertex 16.0 38.8571428571429 0.0
    vertex 43.4820739982416 -2.0 0.0
    vertex 27.1693298791014 21.84 0.0
  endloop
endfacet
facet normal 0.0 0.0 -1.0
  outer loop
    vertex 16.0 38.8571428571429 0.0
    vertex 27.1693298791014 21.84 0.0
    vertex 24.8554747340761 24.8554747340761 0.0
  endloop
endfacet
facet normal 0.0 0.0 -1.0
  outer loop
    vertex 16.0 38.8571428571429 0.0
    vertex 24.8554747340761 24.8554747340761 0.0
    vertex 21.84 27.1693298791014 0.0
  endloop
endfacet
facet normal 0.0 0.0 -1.0
  outer loop
    vertex 16.0 38.8571428571429 0.0
    vertex 21.84 27.1693298791014 0.0
    vertex 18.3284052966927 28.6238800307688 0.0
  endloop
endfacet
facet normal 0.0 0.0 -1.0
  outer loop
    vertex 27.1693298791014 21.84 0.0
    vertex 43.4820739982416 -2.0 0.0
    vertex 28.6238800307688 18.3284052966927 0.0
  endloop
endfacet
facet normal 0.0 0.0 -1.0
  outer loop
    vertex 28.6238800307688 18.3284052966927 0.0
    vertex 43.4820739982416 -2.0 0.0
    vertex 29.12 14.56 0.0
  endloop
endfacet
facet normal 0.0 0.0 -1.0
  outer loop
    vertex -2.0 -2.0 0.0
    vertex 14.56 0.0 0.0
    vertex 43.4820739982416 -2.0 0.0
  endloop
endfacet
facet normal 0.0 0.0 -1.0
  outer loop
    vertex 14.56 0.0 0.0
    vertex -2.0 -2.0 0.0
    vertex 10.7915947033073 0.496119969231168 0.0
  endloop
endfacet
facet normal 0.0 0.0 -1.0
  outer loop
    vertex 10.7915947033073 0.496119969231168 0.0
    vertex -2.0 -2.0 0.0
    vertex 7.27999999999999 1.95067012089858 0.0
  endloop
endfacet
facet normal 0.0 0.0 -1.0
  outer loop
    vertex 7.27999999999999 1.95067012089858 0.0
    vertex -2.0 -2.0 0.0
    vertex 4.26452526592387 4.26452526592387 0.0
  endloop
endfacet
facet normal 0.0 0.0 -1.0
  outer loop
    vertex 4.26452526592387 4.26452526592387 0.0
    vertex -2.0 -2.0 0.0
    vertex 1.95067012089857 7.28000000000001 0.0
  endloop
endfacet
facet normal 0.0 0.0 -1.0
  outer loop
    vertex 1.95067012089857 7.28000000000001 0.0
    vertex -2.0 -2.0 0.0
    vertex 0.496119969231165 10.7915947033073 0.0
  endloop
endfacet
facet normal 0.0 0.0 -1.0
  outer loop
    vertex 0.496119969231165 10.7915947033073 0.0
    vertex -2.0 -2.0 0.0
    vertex 0.0 14.56 0.0
  endloop
endfacet
facet normal 0.0 0.0 -1.0
  outer loop
    vertex 0.0 14.56 0.0
    vertex -2.0 -2.0 0.0
    vertex -1.99999999999999 60.0 0.0
  endloop
endfacet
facet normal 0.0 0.0 -1.0
  outer loop
    vertex 0.0 14.56 0.0
    vertex -1.99999999999999 60.0 0.0
    vertex -2.8199664825479e-015 52.35 0.0
  endloop
endfacet
facet normal 0.0 0.0 -1.0
  outer loop
    vertex 43.4820739982416 -2.0 0.0
    vertex 14.56 0.0 0.0
    vertex 18.3284052966927 0.496119969231165 0.0
  endloop
endfacet
facet normal 0.0 0.0 -1.0
  outer loop
    vertex 43.4820739982416 -2.0 0.0
    vertex 18.3284052966927 0.496119969231165 0.0
    vertex 21.84 1.95067012089857 0.0
  endloop
endfacet
facet normal 0.0 0.0 -1.0
  outer loop
    vertex 43.4820739982416 -2.0 0.0
    vertex 21.84 1.95067012089857 0.0
    vertex 24.8554747340761 4.26452526592387 0.0
  endloop
endfacet
facet normal 0.0 0.0 -1.0
  outer loop
    vertex 43.4820739982416 -2.0 0.0
    vertex 24.8554747340761 4.26452526592387 0.0
    vertex 27.1693298791014 7.28 0.0
  endloop
endfacet
facet normal 0.0 0.0 -1.0
  outer loop
    vertex 43.4820739982416 -2.0 0.0
    vertex 27.1693298791014 7.28 0.0
    vertex 28.6238800307688 10.7915947033073 0.0
  endloop
endfacet
facet normal 0.0 0.0 -1.0
  outer loop
    vertex 43.4820739982416 -2.0 0.0
    vertex 28.6238800307688 10.7915947033073 0.0
    vertex 29.12 14.56 0.0
  endloop
endfacet
facet normal 0.0 0.0 -1.0
  outer loop
    vertex 2.8199664825479e-015 38.8571428571429 0.0
    vertex 0.496119969231168 18.3284052966927 0.0
    vertex 0.0 14.56 0.0
  endloop
endfacet
facet normal 0.0 0.0 -1.0
  outer loop
    vertex 0.496119969231168 18.3284052966927 0.0
    vertex 2.8199664825479e-015 38.8571428571429 0.0
    vertex 0.272593389687455 36.7865904963227 0.0
  endloop
endfacet
facet normal 0.0 0.0 -1.0
  outer loop
    vertex 0.496119969231168 18.3284052966927 0.0
    vertex 0.272593389687455 36.7865904963227 0.0
    vertex 1.07179676972449 34.8571428571429 0.0
  endloop
endfacet
facet normal 0.0 0.0 -1.0
  outer loop
    vertex 0.496119969231168 18.3284052966927 0.0
    vertex 1.07179676972449 34.8571428571429 0.0
    vertex 1.95067012089858 21.84 0.0
  endloop
endfacet
facet normal 0.0 0.0 -1.0
  outer loop
    vertex 1.95067012089858 21.84 0.0
    vertex 1.07179676972449 34.8571428571429 0.0
    vertex 2.34314575050762 33.2002886076505 0.0
  endloop
endfacet
facet normal 0.0 0.0 -1.0
  outer loop
    vertex 1.95067012089858 21.84 0.0
    vertex 2.34314575050762 33.2002886076505 0.0
    vertex 4.26452526592387 24.8554747340761 0.0
  endloop
endfacet
facet normal 0.0 0.0 -1.0
  outer loop
    vertex 4.26452526592387 24.8554747340761 0.0
    vertex 2.34314575050762 33.2002886076505 0.0
    vertex 4.0 31.9289396268674 0.0
  endloop
endfacet
facet normal 0.0 0.0 -1.0
  outer loop
    vertex 4.26452526592387 24.8554747340761 0.0
    vertex 4.0 31.9289396268674 0.0
    vertex 5.92944763917983 31.1297362468303 0.0
  endloop
endfacet
facet normal 0.0 0.0 -1.0
  outer loop
    vertex 4.26452526592387 24.8554747340761 0.0
    vertex 5.92944763917983 31.1297362468303 0.0
    vertex 7.28 27.1693298791014 0.0
  endloop
endfacet
facet normal 0.0 0.0 -1.0
  outer loop
    vertex 7.28 27.1693298791014 0.0
    vertex 5.92944763917983 31.1297362468303 0.0
    vertex 8.0 30.8571428571429 0.0
  endloop
endfacet
facet normal 0.0 0.0 -1.0
  outer loop
    vertex 7.28 27.1693298791014 0.0
    vertex 8.0 30.8571428571429 0.0
    vertex 10.7915947033073 28.6238800307688 0.0
  endloop
endfacet
facet normal 0.0 0.0 -1.0
  outer loop
    vertex 10.7915947033073 28.6238800307688 0.0
    vertex 8.0 30.8571428571429 0.0
    vertex 10.0705523608202 31.1297362468303 0.0
  endloop
endfacet
facet normal 0.0 0.0 -1.0
  outer loop
    vertex 10.7915947033073 28.6238800307688 0.0
    vertex 10.0705523608202 31.1297362468303 0.0
    vertex 12.0 31.9289396268674 0.0
  endloop
endfacet
facet normal 0.0 0.0 -1.0
  outer loop
    vertex 10.7915947033073 28.6238800307688 0.0
    vertex 12.0 31.9289396268674 0.0
    vertex 14.56 29.12 0.0
  endloop
endfacet
facet normal 0.0 0.0 -1.0
  outer loop
    vertex 14.56 29.12 0.0
    vertex 12.0 31.9289396268674 0.0
    vertex 13.6568542494924 33.2002886076505 0.0
  endloop
endfacet
facet normal 0.0 0.0 -1.0
  outer loop
    vertex 14.56 29.12 0.0
    vertex 13.6568542494924 33.2002886076505 0.0
    vertex 14.9282032302755 34.8571428571429 0.0
  endloop
endfacet
facet normal 0.0 0.0 -1.0
  outer loop
    vertex 14.56 29.12 0.0
    vertex 14.9282032302755 34.8571428571429 0.0
    vertex 18.3284052966927 28.6238800307688 0.0
  endloop
endfacet
facet normal 0.0 0.0 -1.0
  outer loop
    vertex 18.3284052966927 28.6238800307688 0.0
    vertex 14.9282032302755 34.8571428571429 0.0
    vertex 15.7274066103125 36.7865904963227 0.0
  endloop
endfacet
facet normal 0.0 0.0 -1.0
  outer loop
    vertex 18.3284052966927 28.6238800307688 0.0
    vertex 15.7274066103125 36.7865904963227 0.0
    vertex 16.0 38.8571428571429 0.0
  endloop
endfacet
facet normal 0.0 0.0 -1.0
  outer loop
    vertex -2.8199664825479e-015 52.35 0.0
    vertex 2.8199664825479e-015 38.8571428571429 0.0
    vertex 0.0 14.56 0.0
  endloop
endfacet
facet normal 0.0 0.0 -1.0
  outer loop
    vertex 2.8199664825479e-015 38.8571428571429 0.0
    vertex -2.8199664825479e-015 52.35 0.0
    vertex 0.14822265564255 51.224137153804 0.0
  endloop
endfacet
facet normal 0.0 0.0 -1.0
  outer loop
    vertex 2.8199664825479e-015 38.8571428571429 0.0
    vertex 0.14822265564255 51.224137153804 0.0
    vertex 0.272593389687458 40.927695217963 0.0
  endloop
endfacet
facet normal 0.0 0.0 -1.0
  outer loop
    vertex 0.272593389687458 40.927695217963 0.0
    vertex 0.14822265564255 51.224137153804 0.0
    vertex 0.582789493537688 50.175 0.0
  endloop
endfacet
facet normal 0.0 0.0 -1.0
  outer loop
    vertex 0.272593389687458 40.927695217963 0.0
    vertex 0.582789493537688 50.175 0.0
    vertex 1.0717967697245 42.8571428571429 0.0
  endloop
endfacet
facet normal 0.0 0.0 -1.0
  outer loop
    vertex 1.0717967697245 42.8571428571429 0.0
    vertex 0.582789493537688 50.175 0.0
    vertex 1.27408550183852 49.2740855018385 0.0
  endloop
endfacet
facet normal 0.0 0.0 -1.0
  outer loop
    vertex 1.0717967697245 42.8571428571429 0.0
    vertex 1.27408550183852 49.2740855018385 0.0
    vertex 2.34314575050762 44.5139971066352 0.0
  endloop
endfacet
facet normal 0.0 0.0 -1.0
  outer loop
    vertex 2.34314575050762 44.5139971066352 0.0
    vertex 1.27408550183852 49.2740855018385 0.0
    vertex 2.175 48.5827894935377 0.0
  endloop
endfacet
facet normal 0.0 0.0 -1.0
  outer loop
    vertex 2.34314575050762 44.5139971066352 0.0
    vertex 2.175 48.5827894935377 0.0
    vertex 3.22413715380403 48.1482226556426 0.0
  endloop
endfacet
facet normal 0.0 0.0 -1.0
  outer loop
    vertex 2.34314575050762 44.5139971066352 0.0
    vertex 3.22413715380403 48.1482226556426 0.0
    vertex 4.0 45.7853460874184 0.0
  endloop
endfacet
facet normal 0.0 0.0 -1.0
  outer loop
    vertex 4.0 45.7853460874184 0.0
    vertex 3.22413715380403 48.1482226556426 0.0
    vertex 4.35 48.0 0.0
  endloop
endfacet
facet normal 0.0 0.0 -1.0
  outer loop
    vertex 4.0 45.7853460874184 0.0
    vertex 4.35 48.0 0.0
    vertex 5.92944763917984 46.5845494674554 0.0
  endloop
endfacet
facet normal 0.0 0.0 -1.0
  outer loop
    vertex 5.92944763917984 46.5845494674554 0.0
    vertex 4.35 48.0 0.0
    vertex 5.47586284619597 48.1482226556426 0.0
  endloop
endfacet
facet normal 0.0 0.0 -1.0
  outer loop
    vertex 5.92944763917984 46.5845494674554 0.0
    vertex 5.47586284619597 48.1482226556426 0.0
    vertex 6.525 48.5827894935377 0.0
  endloop
endfacet
facet normal 0.0 0.0 -1.0
  outer loop
    vertex 5.92944763917984 46.5845494674554 0.0
    vertex 6.525 48.5827894935377 0.0
    vertex 8.0 46.8571428571429 0.0
  endloop
endfacet
facet normal 0.0 0.0 -1.0
  outer loop
    vertex 8.0 46.8571428571429 0.0
    vertex 6.525 48.5827894935377 0.0
    vertex 7.42591449816148 49.2740855018385 0.0
  endloop
endfacet
facet normal 0.0 0.0 -1.0
  outer loop
    vertex 8.0 46.8571428571429 0.0
    vertex 7.42591449816148 49.2740855018385 0.0
    vertex 8.11721050646231 50.175 0.0
  endloop
endfacet
facet normal 0.0 0.0 -1.0
  outer loop
    vertex 8.0 46.8571428571429 0.0
    vertex 8.11721050646231 50.175 0.0
    vertex 10.0705523608202 46.5845494674554 0.0
  endloop
endfacet
facet normal 0.0 0.0 -1.0
  outer loop
    vertex 10.0705523608202 46.5845494674554 0.0
    vertex 8.11721050646231 50.175 0.0
    vertex 8.55177734435745 51.224137153804 0.0
  endloop
endfacet
facet normal 0.0 0.0 -1.0
  outer loop
    vertex 10.0705523608202 46.5845494674554 0.0
    vertex 8.55177734435745 51.224137153804 0.0
    vertex 8.7 52.35 0.0
  endloop
endfacet
facet normal -0.0 -0.0 1.0
  outer loop
    vertex -2.8199664825479e-015 52.35 3.0
    vertex 2.8199664825479e-015 38.8571428571429 3.0
    vertex 0.14822265564255 51.224137153804 3.0
  endloop
endfacet
facet normal -0.0 -0.0 1.0
  outer loop
    vertex 2.8199664825479e-015 38.8571428571429 3.0
    vertex -2.8199664825479e-015 52.35 3.0
    vertex 0.0 14.56 3.0
  endloop
endfacet
facet normal -0.0 -0.0 1.0
  outer loop
    vertex 0.14822265564255 51.224137153804 3.0
    vertex 2.8199664825479e-015 38.8571428571429 3.0
    vertex 0.272593389687458 40.927695217963 3.0
  endloop
endfacet
facet normal -0.0 -0.0 1.0
  outer loop
    vertex 0.14822265564255 51.224137153804 3.0
    vertex 0.272593389687458 40.927695217963 3.0
    vertex 0.582789493537688 50.175 3.0
  endloop
endfacet
facet normal -0.0 -0.0 1.0
  outer loop
    vertex 0.582789493537688 50.175 3.0
    vertex 0.272593389687458 40.927695217963 3.0
    vertex 1.0717967697245 42.8571428571429 3.0
  endloop
endfacet
facet normal -0.0 -0.0 1.0
  outer loop
    vertex 0.582789493537688 50.175 3.0
    vertex 1.0717967697245 42.8571428571429 3.0
    vertex 1.27408550183852 49.2740855018385 3.0
  endloop
endfacet
facet normal -0.0 -0.0 1.0
  outer loop
    vertex 1.27408550183852 49.2740855018385 3.0
    vertex 1.0717967697245 42.8571428571429 3.0
    vertex 2.34314575050762 44.5139971066352 3.0
  endloop
endfacet
facet normal -0.0 -0.0 1.0
  outer loop
    vertex 1.27408550183852 49.2740855018385 3.0
    vertex 2.34314575050762 44.5139971066352 3.0
    vertex 2.175 48.5827894935377 3.0
  endloop
endfacet
facet normal -0.0 -0.0 1.0
  outer loop
    vertex 2.175 48.5827894935377 3.0
    vertex 2.34314575050762 44.5139971066352 3.0
    vertex 3.22413715380403 48.1482226556426 3.0
  endloop
endfacet
facet normal -0.0 -0.0 1.0
  outer loop
    vertex 3.22413715380403 48.1482226556426 3.0
    vertex 2.34314575050762 44.5139971066352 3.0
    vertex 4.0 45.7853460874184 3.0
  endloop
endfacet
facet normal -0.0 -0.0 1.0
  outer loop
    vertex 3.22413715380403 48.1482226556426 3.0
    vertex 4.0 45.7853460874184 3.0
    vertex 4.35 48.0 3.0
  endloop
endfacet
facet normal -0.0 -0.0 1.0
  outer loop
    vertex 4.35 48.0 3.0
    vertex 4.0 45.7853460874184 3.0
    vertex 5.92944763917984 46.5845494674554 3.0
  endloop
endfacet
facet normal -0.0 -0.0 1.0
  outer loop
    vertex 4.35 48.0 3.0
    vertex 5.92944763917984 46.5845494674554 3.0
    vertex 5.47586284619597 48.1482226556426 3.0
  endloop
endfacet
facet normal -0.0 -0.0 1.0
  outer loop
    vertex 5.47586284619597 48.1482226556426 3.0
    vertex 5.92944763917984 46.5845494674554 3.0
    vertex 6.525 48.5827894935377 3.0
  endloop
endfacet
facet normal -0.0 -0.0 1.0
  outer loop
    vertex 6.525 48.5827894935377 3.0
    vertex 5.92944763917984 46.5845494674554 3.0
    vertex 8.0 46.8571428571429 3.0
  endloop
endfacet
facet normal -0.0 -0.0 1.0
  outer loop
    vertex 6.525 48.5827894935377 3.0
    vertex 8.0 46.8571428571429 3.0
    vertex 7.42591449816148 49.2740855018385 3.0
  endloop
endfacet
facet normal -0.0 -0.0 1.0
  outer loop
    vertex 7.42591449816148 49.2740855018385 3.0
    vertex 8.0 46.8571428571429 3.0
    vertex 8.11721050646231 50.175 3.0
  endloop
endfacet
facet normal -0.0 -0.0 1.0
  outer loop
    vertex 8.11721050646231 50.175 3.0
    vertex 8.0 46.8571428571429 3.0
    vertex 10.0705523608202 46.5845494674554 3.0
  endloop
endfacet
facet normal -0.0 -0.0 1.0
  outer loop
    vertex 8.11721050646231 50.175 3.0
    vertex 10.0705523608202 46.5845494674554 3.0
    vertex 8.55177734435745 51.224137153804 3.0
  endloop
endfacet
facet normal -0.0 -0.0 1.0
  outer loop
    vertex 8.55177734435745 51.224137153804 3.0
    vertex 10.0705523608202 46.5845494674554 3.0
    vertex 8.7 52.35 3.0
  endloop
endfacet
facet normal -0.0 -0.0 1.0
  outer loop
    vertex 0.496119969231168 18.3284052966927 3.0
    vertex 2.8199664825479e-015 38.8571428571429 3.0
    vertex 0.0 14.56 3.0
  endloop
endfacet
facet normal -0.0 -0.0 1.0
  outer loop
    vertex 2.8199664825479e-015 38.8571428571429 3.0
    vertex 0.496119969231168 18.3284052966927 3.0
    vertex 0.272593389687455 36.7865904963227 3.0
  endloop
endfacet
facet normal -0.0 -0.0 1.0
  outer loop
    vertex 0.272593389687455 36.7865904963227 3.0
    vertex 0.496119969231168 18.3284052966927 3.0
    vertex 1.07179676972449 34.8571428571429 3.0
  endloop
endfacet
facet normal -0.0 -0.0 1.0
  outer loop
    vertex 1.07179676972449 34.8571428571429 3.0
    vertex 0.496119969231168 18.3284052966927 3.0
    vertex 1.95067012089858 21.84 3.0
  endloop
endfacet
facet normal -0.0 -0.0 1.0
  outer loop
    vertex 1.07179676972449 34.8571428571429 3.0
    vertex 1.95067012089858 21.84 3.0
    vertex 2.34314575050762 33.2002886076505 3.0
  endloop
endfacet
facet normal -0.0 -0.0 1.0
  outer loop
    vertex 2.34314575050762 33.2002886076505 3.0
    vertex 1.95067012089858 21.84 3.0
    vertex 4.26452526592387 24.8554747340761 3.0
  endloop
endfacet
facet normal -0.0 -0.0 1.0
  outer loop
    vertex 2.34314575050762 33.2002886076505 3.0
    vertex 4.26452526592387 24.8554747340761 3.0
    vertex 4.0 31.9289396268674 3.0
  endloop
endfacet
facet normal -0.0 -0.0 1.0
  outer loop
    vertex 4.0 31.9289396268674 3.0
    vertex 4.26452526592387 24.8554747340761 3.0
    vertex 5.92944763917983 31.1297362468303 3.0
  endloop
endfacet
facet normal -0.0 -0.0 1.0
  outer loop
    vertex 5.92944763917983 31.1297362468303 3.0
    vertex 4.26452526592387 24.8554747340761 3.0
    vertex 7.28 27.1693298791014 3.0
  endloop
endfacet
facet normal -0.0 -0.0 1.0
  outer loop
    vertex 5.92944763917983 31.1297362468303 3.0
    vertex 7.28 27.1693298791014 3.0
    vertex 8.0 30.8571428571429 3.0
  endloop
endfacet
facet normal -0.0 -0.0 1.0
  outer loop
    vertex 8.0 30.8571428571429 3.0
    vertex 7.28 27.1693298791014 3.0
    vertex 10.7915947033073 28.6238800307688 3.0
  endloop
endfacet
facet normal -0.0 -0.0 1.0
  outer loop
    vertex 8.0 30.8571428571429 3.0
    vertex 10.7915947033073 28.6238800307688 3.0
    vertex 10.0705523608202 31.1297362468303 3.0
  endloop
endfacet
facet normal -0.0 -0.0 1.0
  outer loop
    vertex 10.0705523608202 31.1297362468303 3.0
    vertex 10.7915947033073 28.6238800307688 3.0
    vertex 12.0 31.9289396268674 3.0
  endloop
endfacet
facet normal -0.0 -0.0 1.0
  outer loop
    vertex 12.0 31.9289396268674 3.0
    vertex 10.7915947033073 28.6238800307688 3.0
    vertex 14.56 29.12 3.0
  endloop
endfacet
facet normal -0.0 -0.0 1.0
  outer loop
    vertex 12.0 31.9289396268674 3.0
    vertex 14.56 29.12 3.0
    vertex 13.6568542494924 33.2002886076505 3.0
  endloop
endfacet
facet normal -0.0 -0.0 1.0
  outer loop
    vertex 13.6568542494924 33.2002886076505 3.0
    vertex 14.56 29.12 3.0
    vertex 14.9282032302755 34.8571428571429 3.0
  endloop
endfacet
facet normal -0.0 -0.0 1.0
  outer loop
    vertex 14.9282032302755 34.8571428571429 3.0
    vertex 14.56 29.12 3.0
    vertex 18.3284052966927 28.6238800307688 3.0
  endloop
endfacet
facet normal -0.0 -0.0 1.0
  outer loop
    vertex 14.9282032302755 34.8571428571429 3.0
    vertex 18.3284052966927 28.6238800307688 3.0
    vertex 15.7274066103125 36.7865904963227 3.0
  endloop
endfacet
facet normal -0.0 -0.0 1.0
  outer loop
    vertex 15.7274066103125 36.7865904963227 3.0
    vertex 18.3284052966927 28.6238800307688 3.0
    vertex 16.0 38.8571428571429 3.0
  endloop
endfacet
facet normal -0.0 -0.0 1.0
  outer loop
    vertex -2.0 -2.0 3.0
    vertex 0.0 14.56 3.0
    vertex -1.99999999999999 60.0 3.0
  endloop
endfacet
facet normal -0.0 -0.0 1.0
  outer loop
    vertex 0.0 14.56 3.0
    vertex -2.0 -2.0 3.0
    vertex 0.496119969231165 10.7915947033073 3.0
  endloop
endfacet
facet normal -0.0 -0.0 1.0
  outer loop
    vertex 0.496119969231165 10.7915947033073 3.0
    vertex -2.0 -2.0 3.0
    vertex 1.95067012089857 7.28000000000001 3.0
  endloop
endfacet
facet normal -0.0 -0.0 1.0
  outer loop
    vertex 1.95067012089857 7.28000000000001 3.0
    vertex -2.0 -2.0 3.0
    vertex 4.26452526592387 4.26452526592387 3.0
  endloop
endfacet
facet normal -0.0 -0.0 1.0
  outer loop
    vertex 4.26452526592387 4.26452526592387 3.0
    vertex -2.0 -2.0 3.0
    vertex 7.27999999999999 1.95067012089858 3.0
  endloop
endfacet
facet normal -0.0 -0.0 1.0
  outer loop
    vertex 7.27999999999999 1.95067012089858 3.0
    vertex -2.0 -2.0 3.0
    vertex 10.7915947033073 0.496119969231168 3.0
  endloop
endfacet
facet normal -0.0 -0.0 1.0
  outer loop
    vertex 10.7915947033073 0.496119969231168 3.0
    vertex -2.0 -2.0 3.0
    vertex 14.56 0.0 3.0
  endloop
endfacet
facet normal -0.0 -0.0 1.0
  outer loop
    vertex 14.56 0.0 3.0
    vertex -2.0 -2.0 3.0
    vertex 43.4820739982416 -2.0 3.0
  endloop
endfacet
facet normal -0.0 -0.0 1.0
  outer loop
    vertex -1.99999999999999 60.0 3.0
    vertex 0.0 14.56 3.0
    vertex -2.8199664825479e-015 52.35 3.0
  endloop
endfacet
facet normal -0.0 -0.0 1.0
  outer loop
    vertex 14.56 0.0 3.0
    vertex 43.4820739982416 -2.0 3.0
    vertex 18.3284052966927 0.496119969231165 3.0
  endloop
endfacet
facet normal -0.0 -0.0 1.0
  outer loop
    vertex 18.3284052966927 0.496119969231165 3.0
    vertex 43.4820739982416 -2.0 3.0
    vertex 21.84 1.95067012089857 3.0
  endloop
endfacet
facet normal -0.0 -0.0 1.0
  outer loop
    vertex 21.84 1.95067012089857 3.0
    vertex 43.4820739982416 -2.0 3.0
    vertex 24.8554747340761 4.26452526592387 3.0
  endloop
endfacet
facet normal -0.0 -0.0 1.0
  outer loop
    vertex 24.8554747340761 4.26452526592387 3.0
    vertex 43.4820739982416 -2.0 3.0
    vertex 27.1693298791014 7.28 3.0
  endloop
endfacet
facet normal -0.0 -0.0 1.0
  outer loop
    vertex 27.1693298791014 7.28 3.0
    vertex 43.4820739982416 -2.0 3.0
    vertex 28.6238800307688 10.7915947033073 3.0
  endloop
endfacet
facet normal -0.0 -0.0 1.0
  outer loop
    vertex 28.6238800307688 10.7915947033073 3.0
    vertex 43.4820739982416 -2.0 3.0
    vertex 29.12 14.56 3.0
  endloop
endfacet
facet normal -0.0 -0.0 1.0
  outer loop
    vertex -1.99999999999999 60.0 3.0
    vertex 2.175 56.1172105064623 3.0
    vertex 7.31540733157497 60.0 3.0
  endloop
endfacet
facet normal -0.0 -0.0 1.0
  outer loop
    vertex 2.175 56.1172105064623 3.0
    vertex -1.99999999999999 60.0 3.0
    vertex 1.27408550183852 55.4259144981615 3.0
  endloop
endfacet
facet normal -0.0 -0.0 1.0
  outer loop
    vertex 1.27408550183852 55.4259144981615 3.0
    vertex -1.99999999999999 60.0 3.0
    vertex 0.582789493537691 54.525 3.0
  endloop
endfacet
facet normal -0.0 -0.0 1.0
  outer loop
    vertex 0.582789493537691 54.525 3.0
    vertex -1.99999999999999 60.0 3.0
    vertex 0.148222655642551 53.475862846196 3.0
  endloop
endfacet
facet normal -0.0 -0.0 1.0
  outer loop
    vertex 0.148222655642551 53.475862846196 3.0
    vertex -1.99999999999999 60.0 3.0
    vertex -2.8199664825479e-015 52.35 3.0
  endloop
endfacet
facet normal -0.0 -0.0 1.0
  outer loop
    vertex 7.31540733157497 60.0 3.0
    vertex 2.175 56.1172105064623 3.0
    vertex 3.22413715380404 56.5517773443575 3.0
  endloop
endfacet
facet normal -0.0 -0.0 1.0
  outer loop
    vertex 7.31540733157497 60.0 3.0
    vertex 3.22413715380404 56.5517773443575 3.0
    vertex 4.35 56.7 3.0
  endloop
endfacet
facet normal -0.0 -0.0 1.0
  outer loop
    vertex 7.31540733157497 60.0 3.0
    vertex 4.35 56.7 3.0
    vertex 5.47586284619597 56.5517773443575 3.0
  endloop
endfacet
facet normal -0.0 -0.0 1.0
  outer loop
    vertex 7.31540733157497 60.0 3.0
    vertex 5.47586284619597 56.5517773443575 3.0
    vertex 6.525 56.1172105064623 3.0
  endloop
endfacet
facet normal -0.0 -0.0 1.0
  outer loop
    vertex 7.31540733157497 60.0 3.0
    vertex 6.525 56.1172105064623 3.0
    vertex 7.42591449816149 55.4259144981615 3.0
  endloop
endfacet
facet normal -0.0 -0.0 1.0
  outer loop
    vertex 7.31540733157497 60.0 3.0
    vertex 7.42591449816149 55.4259144981615 3.0
    vertex 8.11721050646231 54.525 3.0
  endloop
endfacet
facet normal -0.0 -0.0 1.0
  outer loop
    vertex 7.31540733157497 60.0 3.0
    vertex 8.11721050646231 54.525 3.0
    vertex 43.4820739982416 -2.0 3.0
  endloop
endfacet
facet normal -0.0 -0.0 1.0
  outer loop
    vertex 43.4820739982416 -2.0 3.0
    vertex 8.11721050646231 54.525 3.0
    vertex 8.55177734435745 53.475862846196 3.0
  endloop
endfacet
facet normal -0.0 -0.0 1.0
  outer loop
    vertex 43.4820739982416 -2.0 3.0
    vertex 8.55177734435745 53.475862846196 3.0
    vertex 14.9282032302755 42.8571428571429 3.0
  endloop
endfacet
facet normal -0.0 -0.0 1.0
  outer loop
    vertex 14.9282032302755 42.8571428571429 3.0
    vertex 8.55177734435745 53.475862846196 3.0
    vertex 8.7 52.35 3.0
  endloop
endfacet
facet normal -0.0 -0.0 1.0
  outer loop
    vertex 14.9282032302755 42.8571428571429 3.0
    vertex 8.7 52.35 3.0
    vertex 13.6568542494924 44.5139971066352 3.0
  endloop
endfacet
facet normal -0.0 -0.0 1.0
  outer loop
    vertex 13.6568542494924 44.5139971066352 3.0
    vertex 8.7 52.35 3.0
    vertex 12.0 45.7853460874184 3.0
  endloop
endfacet
facet normal -0.0 -0.0 1.0
  outer loop
    vertex 12.0 45.7853460874184 3.0
    vertex 8.7 52.35 3.0
    vertex 10.0705523608202 46.5845494674554 3.0
  endloop
endfacet
facet normal -0.0 -0.0 1.0
  outer loop
    vertex 43.4820739982416 -2.0 3.0
    vertex 14.9282032302755 42.8571428571429 3.0
    vertex 15.7274066103125 40.927695217963 3.0
  endloop
endfacet
facet normal -0.0 -0.0 1.0
  outer loop
    vertex 43.4820739982416 -2.0 3.0
    vertex 15.7274066103125 40.927695217963 3.0
    vertex 16.0 38.8571428571429 3.0
  endloop
endfacet
facet normal -0.0 -0.0 1.0
  outer loop
    vertex 43.4820739982416 -2.0 3.0
    vertex 16.0 38.8571428571429 3.0
    vertex 27.1693298791014 21.84 3.0
  endloop
endfacet
facet normal -0.0 -0.0 1.0
  outer loop
    vertex 27.1693298791014 21.84 3.0
    vertex 16.0 38.8571428571429 3.0
    vertex 24.8554747340761 24.8554747340761 3.0
  endloop
endfacet
facet normal -0.0 -0.0 1.0
  outer loop
    vertex 24.8554747340761 24.8554747340761 3.0
    vertex 16.0 38.8571428571429 3.0
    vertex 21.84 27.1693298791014 3.0
  endloop
endfacet
facet normal -0.0 -0.0 1.0
  outer loop
    vertex 21.84 27.1693298791014 3.0
    vertex 16.0 38.8571428571429 3.0
    vertex 18.3284052966927 28.6238800307688 3.0
  endloop
endfacet
facet normal -0.0 -0.0 1.0
  outer loop
    vertex 43.4820739982416 -2.0 3.0
    vertex 27.1693298791014 21.84 3.0
    vertex 28.6238800307688 18.3284052966927 3.0
  endloop
endfacet
facet normal -0.0 -0.0 1.0
  outer loop
    vertex 43.4820739982416 -2.0 3.0
    vertex 28.6238800307688 18.3284052966927 3.0
    vertex 29.12 14.56 3.0
  endloop
endfacet
facet normal -0.0 1.0 0.0
  outer loop
    vertex -1.99999999999999 60.0 3.0
    vertex 7.31540733157497 60.0 0.0
    vertex -1.99999999999999 60.0 0.0
  endloop
endfacet
facet normal -0.0 1.0 0.0
  outer loop
    vertex 7.31540733157497 60.0 0.0
    vertex -1.99999999999999 60.0 3.0
    vertex 7.31540733157497 60.0 3.0
  endloop
endfacet
facet normal 0.863778900898433 0.503871025524086 0.0
  outer loop
    vertex 7.31540733157497 60.0 0.0
    vertex 43.4820739982416 -2.0 3.0
    vertex 43.4820739982416 -2.0 0.0
  endloop
endfacet
facet normal 0.863778900898433 0.503871025524086 0.0
  outer loop
    vertex 43.4820739982416 -2.0 3.0
    vertex 7.31540733157497 60.0 0.0
    vertex 7.31540733157497 60.0 3.0
  endloop
endfacet
facet normal -6.20017126452263e-017 -1.0 -0.0
  outer loop
    vertex 43.4820739982416 -2.0 3.0
    vertex -2.0 -2.0 0.0
    vertex 43.4820739982416 -2.0 0.0
  endloop
endfacet
facet normal -6.20017126452263e-017 -1.0 -0.0
  outer loop
    vertex -2.0 -2.0 0.0
    vertex 43.4820739982416 -2.0 3.0
    vertex -2.0 -2.0 3.0
  endloop
endfacet
facet normal -1.0 1.19393742204649e-016 0.0
  outer loop
    vertex -1.99999999999999 60.0 3.0
    vertex -2.0 -2.0 0.0
    vertex -2.0 -2.0 3.0
  endloop
endfacet
facet normal -1.0 1.19393742204649e-016 0.0
  outer loop
    vertex -2.0 -2.0 0.0
    vertex -1.99999999999999 60.0 3.0
    vertex -1.99999999999999 60.0 0.0
  endloop
endfacet
facet normal 0.99144486137381 -0.130526192220052 0.0
  outer loop
    vertex 0.496119969231168 18.3284052966927 0.0
    vertex 0.0 14.56 3.0
    vertex 0.0 14.56 0.0
  endloop
endfacet
facet normal 0.99144486137381 -0.130526192220052 0.0
  outer loop
    vertex 0.0 14.56 3.0
    vertex 0.496119969231168 18.3284052966927 0.0
    vertex 0.496119969231168 18.3284052966927 3.0
  endloop
endfacet
facet normal 0.99144486137381 0.130526192220052 0.0
  outer loop
    vertex 0.0 14.56 0.0
    vertex 0.496119969231165 10.7915947033073 3.0
    vertex 0.496119969231165 10.7915947033073 0.0
  endloop
endfacet
facet normal 0.99144486137381 0.130526192220052 0.0
  outer loop
    vertex 0.496119969231165 10.7915947033073 3.0
    vertex 0.0 14.56 0.0
    vertex 0.0 14.56 3.0
  endloop
endfacet
facet normal 0.923879532511287 0.382683432365089 0.0
  outer loop
    vertex 0.496119969231165 10.7915947033073 0.0
    vertex 1.95067012089857 7.28000000000001 3.0
    vertex 1.95067012089857 7.28000000000001 0.0
  endloop
endfacet
facet normal 0.923879532511287 0.382683432365089 0.0
  outer loop
    vertex 1.95067012089857 7.28000000000001 3.0
    vertex 0.496119969231165 10.7915947033073 0.0
    vertex 0.496119969231165 10.7915947033073 3.0
  endloop
endfacet
facet normal 0.793353340291236 0.60876142900872 0.0
  outer loop
    vertex 1.95067012089857 7.28000000000001 0.0
    vertex 4.26452526592387 4.26452526592387 3.0
    vertex 4.26452526592387 4.26452526592387 0.0
  endloop
endfacet
facet normal 0.793353340291236 0.60876142900872 0.0
  outer loop
    vertex 4.26452526592387 4.26452526592387 3.0
    vertex 1.95067012089857 7.28000000000001 0.0
    vertex 1.95067012089857 7.28000000000001 3.0
  endloop
endfacet
facet normal 0.608761429008721 0.793353340291235 0.0
  outer loop
    vertex 4.26452526592387 4.26452526592387 3.0
    vertex 7.27999999999999 1.95067012089858 0.0
    vertex 4.26452526592387 4.26452526592387 0.0
  endloop
endfacet
facet normal 0.608761429008721 0.793353340291235 0.0
  outer loop
    vertex 7.27999999999999 1.95067012089858 0.0
    vertex 4.26452526592387 4.26452526592387 3.0
    vertex 7.27999999999999 1.95067012089858 3.0
  endloop
endfacet
facet normal 0.382683432365091 0.923879532511286 0.0
  outer loop
    vertex 7.27999999999999 1.95067012089858 3.0
    vertex 10.7915947033073 0.496119969231168 0.0
    vertex 7.27999999999999 1.95067012089858 0.0
  endloop
endfacet
facet normal 0.382683432365091 0.923879532511286 0.0
  outer loop
    vertex 10.7915947033073 0.496119969231168 0.0
    vertex 7.27999999999999 1.95067012089858 3.0
    vertex 10.7915947033073 0.496119969231168 3.0
  endloop
endfacet
facet normal 0.130526192220052 0.99144486137381 -0.0
  outer loop
    vertex 10.7915947033073 0.496119969231168 3.0
    vertex 14.56 0.0 0.0
    vertex 10.7915947033073 0.496119969231168 0.0
  endloop
endfacet
facet normal 0.130526192220052 0.99144486137381 -0.0
  outer loop
    vertex 14.56 0.0 0.0
    vertex 10.7915947033073 0.496119969231168 3.0
    vertex 14.56 0.0 3.0
  endloop
endfacet
facet normal -0.130526192220051 0.99144486137381 -0.0
  outer loop
    vertex 14.56 0.0 3.0
    vertex 18.3284052966927 0.496119969231165 0.0
    vertex 14.56 0.0 0.0
  endloop
endfacet
facet normal -0.130526192220051 0.99144486137381 -0.0
  outer loop
    vertex 18.3284052966927 0.496119969231165 0.0
    vertex 14.56 0.0 3.0
    vertex 18.3284052966927 0.496119969231165 3.0
  endloop
endfacet
facet normal -0.38268343236509 0.923879532511287 0.0
  outer loop
    vertex 18.3284052966927 0.496119969231165 3.0
    vertex 21.84 1.95067012089857 0.0
    vertex 18.3284052966927 0.496119969231165 0.0
  endloop
endfacet
facet normal -0.38268343236509 0.923879532511287 0.0
  outer loop
    vertex 21.84 1.95067012089857 0.0
    vertex 18.3284052966927 0.496119969231165 3.0
    vertex 21.84 1.95067012089857 3.0
  endloop
endfacet
facet normal -0.608761429008721 0.793353340291235 0.0
  outer loop
    vertex 21.84 1.95067012089857 3.0
    vertex 24.8554747340761 4.26452526592387 0.0
    vertex 21.84 1.95067012089857 0.0
  endloop
endfacet
facet normal -0.608761429008721 0.793353340291235 0.0
  outer loop
    vertex 24.8554747340761 4.26452526592387 0.0
    vertex 21.84 1.95067012089857 3.0
    vertex 24.8554747340761 4.26452526592387 3.0
  endloop
endfacet
facet normal -0.793353340291235 0.608761429008721 0.0
  outer loop
    vertex 27.1693298791014 7.28 3.0
    vertex 24.8554747340761 4.26452526592387 0.0
    vertex 24.8554747340761 4.26452526592387 3.0
  endloop
endfacet
facet normal -0.793353340291235 0.608761429008721 0.0
  outer loop
    vertex 24.8554747340761 4.26452526592387 0.0
    vertex 27.1693298791014 7.28 3.0
    vertex 27.1693298791014 7.28 0.0
  endloop
endfacet
facet normal -0.923879532511287 0.38268343236509 0.0
  outer loop
    vertex 28.6238800307688 10.7915947033073 3.0
    vertex 27.1693298791014 7.28 0.0
    vertex 27.1693298791014 7.28 3.0
  endloop
endfacet
facet normal -0.923879532511287 0.38268343236509 0.0
  outer loop
    vertex 27.1693298791014 7.28 0.0
    vertex 28.6238800307688 10.7915947033073 3.0
    vertex 28.6238800307688 10.7915947033073 0.0
  endloop
endfacet
facet normal -0.99144486137381 0.130526192220052 0.0
  outer loop
    vertex 29.12 14.56 3.0
    vertex 28.6238800307688 10.7915947033073 0.0
    vertex 28.6238800307688 10.7915947033073 3.0
  endloop
endfacet
facet normal -0.99144486137381 0.130526192220052 0.0
  outer loop
    vertex 28.6238800307688 10.7915947033073 0.0
    vertex 29.12 14.56 3.0
    vertex 29.12 14.56 0.0
  endloop
endfacet
facet normal -0.991444861373811 -0.130526192220051 -0.0
  outer loop
    vertex 28.6238800307688 18.3284052966927 3.0
    vertex 29.12 14.56 0.0
    vertex 29.12 14.56 3.0
  endloop
endfacet
facet normal -0.991444861373811 -0.130526192220051 -0.0
  outer loop
    vertex 29.12 14.56 0.0
    vertex 28.6238800307688 18.3284052966927 3.0
    vertex 28.6238800307688 18.3284052966927 0.0
  endloop
endfacet
facet normal -0.923879532511287 -0.382683432365091 -0.0
  outer loop
    vertex 27.1693298791014 21.84 3.0
    vertex 28.6238800307688 18.3284052966927 0.0
    vertex 28.6238800307688 18.3284052966927 3.0
  endloop
endfacet
facet normal -0.923879532511287 -0.382683432365091 -0.0
  outer loop
    vertex 28.6238800307688 18.3284052966927 0.0
    vertex 27.1693298791014 21.84 3.0
    vertex 27.1693298791014 21.84 0.0
  endloop
endfacet
facet normal -0.793353340291236 -0.60876142900872 -0.0
  outer loop
    vertex 24.8554747340761 24.8554747340761 3.0
    vertex 27.1693298791014 21.84 0.0
    vertex 27.1693298791014 21.84 3.0
  endloop
endfacet
facet normal -0.793353340291236 -0.60876142900872 -0.0
  outer loop
    vertex 27.1693298791014 21.84 0.0
    vertex 24.8554747340761 24.8554747340761 3.0
    vertex 24.8554747340761 24.8554747340761 0.0
  endloop
endfacet
facet normal -0.60876142900872 -0.793353340291235 -0.0
  outer loop
    vertex 24.8554747340761 24.8554747340761 3.0
    vertex 21.84 27.1693298791014 0.0
    vertex 24.8554747340761 24.8554747340761 0.0
  endloop
endfacet
facet normal -0.60876142900872 -0.793353340291235 -0.0
  outer loop
    vertex 21.84 27.1693298791014 0.0
    vertex 24.8554747340761 24.8554747340761 3.0
    vertex 21.84 27.1693298791014 3.0
  endloop
endfacet
facet normal -0.382683432365091 -0.923879532511287 -0.0
  outer loop
    vertex 21.84 27.1693298791014 3.0
    vertex 18.3284052966927 28.6238800307688 0.0
    vertex 21.84 27.1693298791014 0.0
  endloop
endfacet
facet normal -0.382683432365091 -0.923879532511287 -0.0
  outer loop
    vertex 18.3284052966927 28.6238800307688 0.0
    vertex 21.84 27.1693298791014 3.0
    vertex 18.3284052966927 28.6238800307688 3.0
  endloop
endfacet
facet normal -0.130526192220052 -0.99144486137381 -0.0
  outer loop
    vertex 18.3284052966927 28.6238800307688 3.0
    vertex 14.56 29.12 0.0
    vertex 18.3284052966927 28.6238800307688 0.0
  endloop
endfacet
facet normal -0.130526192220052 -0.99144486137381 -0.0
  outer loop
    vertex 14.56 29.12 0.0
    vertex 18.3284052966927 28.6238800307688 3.0
    vertex 14.56 29.12 3.0
  endloop
endfacet
facet normal 0.130526192220051 -0.991444861373811 0.0
  outer loop
    vertex 14.56 29.12 3.0
    vertex 10.7915947033073 28.6238800307688 0.0
    vertex 14.56 29.12 0.0
  endloop
endfacet
facet normal 0.130526192220051 -0.991444861373811 0.0
  outer loop
    vertex 10.7915947033073 28.6238800307688 0.0
    vertex 14.56 29.12 3.0
    vertex 10.7915947033073 28.6238800307688 3.0
  endloop
endfacet
facet normal 0.382683432365089 -0.923879532511287 0.0
  outer loop
    vertex 10.7915947033073 28.6238800307688 3.0
    vertex 7.28 27.1693298791014 0.0
    vertex 10.7915947033073 28.6238800307688 0.0
  endloop
endfacet
facet normal 0.382683432365089 -0.923879532511287 0.0
  outer loop
    vertex 7.28 27.1693298791014 0.0
    vertex 10.7915947033073 28.6238800307688 3.0
    vertex 7.28 27.1693298791014 3.0
  endloop
endfacet
facet normal 0.60876142900872 -0.793353340291235 0.0
  outer loop
    vertex 7.28 27.1693298791014 3.0
    vertex 4.26452526592387 24.8554747340761 0.0
    vertex 7.28 27.1693298791014 0.0
  endloop
endfacet
facet normal 0.60876142900872 -0.793353340291235 0.0
  outer loop
    vertex 4.26452526592387 24.8554747340761 0.0
    vertex 7.28 27.1693298791014 3.0
    vertex 4.26452526592387 24.8554747340761 3.0
  endloop
endfacet
facet normal 0.793353340291235 -0.608761429008721 0.0
  outer loop
    vertex 4.26452526592387 24.8554747340761 0.0
    vertex 1.95067012089858 21.84 3.0
    vertex 1.95067012089858 21.84 0.0
  endloop
endfacet
facet normal 0.793353340291235 -0.608761429008721 0.0
  outer loop
    vertex 1.95067012089858 21.84 3.0
    vertex 4.26452526592387 24.8554747340761 0.0
    vertex 4.26452526592387 24.8554747340761 3.0
  endloop
endfacet
facet normal 0.923879532511286 -0.382683432365091 0.0
  outer loop
    vertex 1.95067012089858 21.84 0.0
    vertex 0.496119969231168 18.3284052966927 3.0
    vertex 0.496119969231168 18.3284052966927 0.0
  endloop
endfacet
facet normal 0.923879532511286 -0.382683432365091 0.0
  outer loop
    vertex 0.496119969231168 18.3284052966927 3.0
    vertex 1.95067012089858 21.84 0.0
    vertex 1.95067012089858 21.84 3.0
  endloop
endfacet
facet normal -0.793353340291235 0.608761429008721 0.0
  outer loop
    vertex 14.9282032302755 34.8571428571429 3.0
    vertex 13.6568542494924 33.2002886076505 0.0
    vertex 13.6568542494924 33.2002886076505 3.0
  endloop
endfacet
facet normal -0.793353340291235 0.608761429008721 0.0
  outer loop
    vertex 13.6568542494924 33.2002886076505 0.0
    vertex 14.9282032302755 34.8571428571429 3.0
    vertex 14.9282032302755 34.8571428571429 0.0
  endloop
endfacet
facet normal -0.923879532511287 0.38268343236509 0.0
  outer loop
    vertex 15.7274066103125 36.7865904963227 3.0
    vertex 14.9282032302755 34.8571428571429 0.0
    vertex 14.9282032302755 34.8571428571429 3.0
  endloop
endfacet
facet normal -0.923879532511287 0.38268343236509 0.0
  outer loop
    vertex 14.9282032302755 34.8571428571429 0.0
    vertex 15.7274066103125 36.7865904963227 3.0
    vertex 15.7274066103125 36.7865904963227 0.0
  endloop
endfacet
facet normal -0.99144486137381 0.130526192220052 0.0
  outer loop
    vertex 16.0 38.8571428571429 3.0
    vertex 15.7274066103125 36.7865904963227 0.0
    vertex 15.7274066103125 36.7865904963227 3.0
  endloop
endfacet
facet normal -0.99144486137381 0.130526192220052 0.0
  outer loop
    vertex 15.7274066103125 36.7865904963227 0.0
    vertex 16.0 38.8571428571429 3.0
    vertex 16.0 38.8571428571429 0.0
  endloop
endfacet
facet normal -0.99144486137381 -0.130526192220052 -0.0
  outer loop
    vertex 15.7274066103125 40.927695217963 3.0
    vertex 16.0 38.8571428571429 0.0
    vertex 16.0 38.8571428571429 3.0
  endloop
endfacet
facet normal -0.99144486137381 -0.130526192220052 -0.0
  outer loop
    vertex 16.0 38.8571428571429 0.0
    vertex 15.7274066103125 40.927695217963 3.0
    vertex 15.7274066103125 40.927695217963 0.0
  endloop
endfacet
facet normal -0.923879532511287 -0.38268343236509 -0.0
  outer loop
    vertex 14.9282032302755 42.8571428571429 3.0
    vertex 15.7274066103125 40.927695217963 0.0
    vertex 15.7274066103125 40.927695217963 3.0
  endloop
endfacet
facet normal -0.923879532511287 -0.38268343236509 -0.0
  outer loop
    vertex 15.7274066103125 40.927695217963 0.0
    vertex 14.9282032302755 42.8571428571429 3.0
    vertex 14.9282032302755 42.8571428571429 0.0
  endloop
endfacet
facet normal -0.793353340291235 -0.608761429008721 -0.0
  outer loop
    vertex 13.6568542494924 44.5139971066352 3.0
    vertex 14.9282032302755 42.8571428571429 0.0
    vertex 14.9282032302755 42.8571428571429 3.0
  endloop
endfacet
facet normal -0.793353340291235 -0.608761429008721 -0.0
  outer loop
    vertex 14.9282032302755 42.8571428571429 0.0
    vertex 13.6568542494924 44.5139971066352 3.0
    vertex 13.6568542494924 44.5139971066352 0.0
  endloop
endfacet
facet normal -0.60876142900872 -0.793353340291236 -0.0
  outer loop
    vertex 13.6568542494924 44.5139971066352 3.0
    vertex 12.0 45.7853460874184 0.0
    vertex 13.6568542494924 44.5139971066352 0.0
  endloop
endfacet
facet normal -0.60876142900872 -0.793353340291236 -0.0
  outer loop
    vertex 12.0 45.7853460874184 0.0
    vertex 13.6568542494924 44.5139971066352 3.0
    vertex 12.0 45.7853460874184 3.0
  endloop
endfacet
facet normal -0.382683432365091 -0.923879532511286 -0.0
  outer loop
    vertex 12.0 45.7853460874184 3.0
    vertex 10.0705523608202 46.5845494674554 0.0
    vertex 12.0 45.7853460874184 0.0
  endloop
endfacet
facet normal -0.382683432365091 -0.923879532511286 -0.0
  outer loop
    vertex 10.0705523608202 46.5845494674554 0.0
    vertex 12.0 45.7853460874184 3.0
    vertex 10.0705523608202 46.5845494674554 3.0
  endloop
endfacet
facet normal -0.130526192220052 -0.99144486137381 -0.0
  outer loop
    vertex 10.0705523608202 46.5845494674554 3.0
    vertex 8.0 46.8571428571429 0.0
    vertex 10.0705523608202 46.5845494674554 0.0
  endloop
endfacet
facet normal -0.130526192220052 -0.99144486137381 -0.0
  outer loop
    vertex 8.0 46.8571428571429 0.0
    vertex 10.0705523608202 46.5845494674554 3.0
    vertex 8.0 46.8571428571429 3.0
  endloop
endfacet
facet normal 0.130526192220052 -0.99144486137381 0.0
  outer loop
    vertex 8.0 46.8571428571429 3.0
    vertex 5.92944763917984 46.5845494674554 0.0
    vertex 8.0 46.8571428571429 0.0
  endloop
endfacet
facet normal 0.130526192220052 -0.99144486137381 0.0
  outer loop
    vertex 5.92944763917984 46.5845494674554 0.0
    vertex 8.0 46.8571428571429 3.0
    vertex 5.92944763917984 46.5845494674554 3.0
  endloop
endfacet
facet normal 0.382683432365089 -0.923879532511287 0.0
  outer loop
    vertex 5.92944763917984 46.5845494674554 3.0
    vertex 4.0 45.7853460874184 0.0
    vertex 5.92944763917984 46.5845494674554 0.0
  endloop
endfacet
facet normal 0.382683432365089 -0.923879532511287 0.0
  outer loop
    vertex 4.0 45.7853460874184 0.0
    vertex 5.92944763917984 46.5845494674554 3.0
    vertex 4.0 45.7853460874184 3.0
  endloop
endfacet
facet normal 0.60876142900872 -0.793353340291236 0.0
  outer loop
    vertex 4.0 45.7853460874184 3.0
    vertex 2.34314575050762 44.5139971066352 0.0
    vertex 4.0 45.7853460874184 0.0
  endloop
endfacet
facet normal 0.60876142900872 -0.793353340291236 0.0
  outer loop
    vertex 2.34314575050762 44.5139971066352 0.0
    vertex 4.0 45.7853460874184 3.0
    vertex 2.34314575050762 44.5139971066352 3.0
  endloop
endfacet
facet normal 0.793353340291235 -0.608761429008721 0.0
  outer loop
    vertex 2.34314575050762 44.5139971066352 0.0
    vertex 1.0717967697245 42.8571428571429 3.0
    vertex 1.0717967697245 42.8571428571429 0.0
  endloop
endfacet
facet normal 0.793353340291235 -0.608761429008721 0.0
  outer loop
    vertex 1.0717967697245 42.8571428571429 3.0
    vertex 2.34314575050762 44.5139971066352 0.0
    vertex 2.34314575050762 44.5139971066352 3.0
  endloop
endfacet
facet normal 0.923879532511287 -0.38268343236509 0.0
  outer loop
    vertex 1.0717967697245 42.8571428571429 0.0
    vertex 0.272593389687458 40.927695217963 3.0
    vertex 0.272593389687458 40.927695217963 0.0
  endloop
endfacet
facet normal 0.923879532511287 -0.38268343236509 0.0
  outer loop
    vertex 0.272593389687458 40.927695217963 3.0
    vertex 1.0717967697245 42.8571428571429 0.0
    vertex 1.0717967697245 42.8571428571429 3.0
  endloop
endfacet
facet normal 0.99144486137381 -0.130526192220052 0.0
  outer loop
    vertex 0.272593389687458 40.927695217963 0.0
    vertex 2.8199664825479e-015 38.8571428571429 3.0
    vertex 2.8199664825479e-015 38.8571428571429 0.0
  endloop
endfacet
facet normal 0.99144486137381 -0.130526192220052 0.0
  outer loop
    vertex 2.8199664825479e-015 38.8571428571429 3.0
    vertex 0.272593389687458 40.927695217963 0.0
    vertex 0.272593389687458 40.927695217963 3.0
  endloop
endfacet
facet normal 0.991444861373811 0.130526192220052 0.0
  outer loop
    vertex 2.8199664825479e-015 38.8571428571429 0.0
    vertex 0.272593389687455 36.7865904963227 3.0
    vertex 0.272593389687455 36.7865904963227 0.0
  endloop
endfacet
facet normal 0.991444861373811 0.130526192220052 0.0
  outer loop
    vertex 0.272593389687455 36.7865904963227 3.0
    vertex 2.8199664825479e-015 38.8571428571429 0.0
    vertex 2.8199664825479e-015 38.8571428571429 3.0
  endloop
endfacet
facet normal 0.923879532511287 0.382683432365089 0.0
  outer loop
    vertex 0.272593389687455 36.7865904963227 0.0
    vertex 1.07179676972449 34.8571428571429 3.0
    vertex 1.07179676972449 34.8571428571429 0.0
  endloop
endfacet
facet normal 0.923879532511287 0.382683432365089 0.0
  outer loop
    vertex 1.07179676972449 34.8571428571429 3.0
    vertex 0.272593389687455 36.7865904963227 0.0
    vertex 0.272593389687455 36.7865904963227 3.0
  endloop
endfacet
facet normal 0.793353340291236 0.60876142900872 0.0
  outer loop
    vertex 1.07179676972449 34.8571428571429 0.0
    vertex 2.34314575050762 33.2002886076505 3.0
    vertex 2.34314575050762 33.2002886076505 0.0
  endloop
endfacet
facet normal 0.793353340291236 0.60876142900872 0.0
  outer loop
    vertex 2.34314575050762 33.2002886076505 3.0
    vertex 1.07179676972449 34.8571428571429 0.0
    vertex 1.07179676972449 34.8571428571429 3.0
  endloop
endfacet
facet normal 0.60876142900872 0.793353340291236 0.0
  outer loop
    vertex 2.34314575050762 33.2002886076505 3.0
    vertex 4.0 31.9289396268674 0.0
    vertex 2.34314575050762 33.2002886076505 0.0
  endloop
endfacet
facet normal 0.60876142900872 0.793353340291236 0.0
  outer loop
    vertex 4.0 31.9289396268674 0.0
    vertex 2.34314575050762 33.2002886076505 3.0
    vertex 4.0 31.9289396268674 3.0
  endloop
endfacet
facet normal 0.382683432365092 0.923879532511286 0.0
  outer loop
    vertex 4.0 31.9289396268674 3.0
    vertex 5.92944763917983 31.1297362468303 0.0
    vertex 4.0 31.9289396268674 0.0
  endloop
endfacet
facet normal 0.382683432365092 0.923879532511286 0.0
  outer loop
    vertex 5.92944763917983 31.1297362468303 0.0
    vertex 4.0 31.9289396268674 3.0
    vertex 5.92944763917983 31.1297362468303 3.0
  endloop
endfacet
facet normal 0.130526192220051 0.991444861373811 0.0
  outer loop
    vertex 5.92944763917983 31.1297362468303 3.0
    vertex 8.0 30.8571428571429 0.0
    vertex 5.92944763917983 31.1297362468303 0.0
  endloop
endfacet
facet normal 0.130526192220051 0.991444861373811 0.0
  outer loop
    vertex 8.0 30.8571428571429 0.0
    vertex 5.92944763917983 31.1297362468303 3.0
    vertex 8.0 30.8571428571429 3.0
  endloop
endfacet
facet normal -0.130526192220052 0.99144486137381 0.0
  outer loop
    vertex 8.0 30.8571428571429 3.0
    vertex 10.0705523608202 31.1297362468303 0.0
    vertex 8.0 30.8571428571429 0.0
  endloop
endfacet
facet normal -0.130526192220052 0.99144486137381 0.0
  outer loop
    vertex 10.0705523608202 31.1297362468303 0.0
    vertex 8.0 30.8571428571429 3.0
    vertex 10.0705523608202 31.1297362468303 3.0
  endloop
endfacet
facet normal -0.382683432365089 0.923879532511287 0.0
  outer loop
    vertex 10.0705523608202 31.1297362468303 3.0
    vertex 12.0 31.9289396268674 0.0
    vertex 10.0705523608202 31.1297362468303 0.0
  endloop
endfacet
facet normal -0.382683432365089 0.923879532511287 0.0
  outer loop
    vertex 12.0 31.9289396268674 0.0
    vertex 10.0705523608202 31.1297362468303 3.0
    vertex 12.0 31.9289396268674 3.0
  endloop
endfacet
facet normal -0.608761429008721 0.793353340291235 0.0
  outer loop
    vertex 12.0 31.9289396268674 3.0
    vertex 13.6568542494924 33.2002886076505 0.0
    vertex 12.0 31.9289396268674 0.0
  endloop
endfacet
facet normal -0.608761429008721 0.793353340291235 0.0
  outer loop
    vertex 13.6568542494924 33.2002886076505 0.0
    vertex 12.0 31.9289396268674 3.0
    vertex 13.6568542494924 33.2002886076505 3.0
  endloop
endfacet
facet normal 0.382683432365088 0.923879532511288 0.0
  outer loop
    vertex 2.175 48.5827894935377 3.0
    vertex 3.22413715380403 48.1482226556426 0.0
    vertex 2.175 48.5827894935377 0.0
  endloop
endfacet
facet normal 0.382683432365088 0.923879532511288 0.0
  outer loop
    vertex 3.22413715380403 48.1482226556426 0.0
    vertex 2.175 48.5827894935377 3.0
    vertex 3.22413715380403 48.1482226556426 3.0
  endloop
endfacet
facet normal 0.130526192220054 0.99144486137381 0.0
  outer loop
    vertex 3.22413715380403 48.1482226556426 3.0
    vertex 4.35 48.0 0.0
    vertex 3.22413715380403 48.1482226556426 0.0
  endloop
endfacet
facet normal 0.130526192220054 0.99144486137381 0.0
  outer loop
    vertex 4.35 48.0 0.0
    vertex 3.22413715380403 48.1482226556426 3.0
    vertex 4.35 48.0 3.0
  endloop
endfacet
facet normal -0.130526192220049 0.991444861373811 0.0
  outer loop
    vertex 4.35 48.0 3.0
    vertex 5.47586284619597 48.1482226556426 0.0
    vertex 4.35 48.0 0.0
  endloop
endfacet
facet normal -0.130526192220049 0.991444861373811 0.0
  outer loop
    vertex 5.47586284619597 48.1482226556426 0.0
    vertex 4.35 48.0 3.0
    vertex 5.47586284619597 48.1482226556426 3.0
  endloop
endfacet
facet normal -0.382683432365092 0.923879532511286 0.0
  outer loop
    vertex 5.47586284619597 48.1482226556426 3.0
    vertex 6.525 48.5827894935377 0.0
    vertex 5.47586284619597 48.1482226556426 0.0
  endloop
endfacet
facet normal -0.382683432365092 0.923879532511286 0.0
  outer loop
    vertex 6.525 48.5827894935377 0.0
    vertex 5.47586284619597 48.1482226556426 3.0
    vertex 6.525 48.5827894935377 3.0
  endloop
endfacet
facet normal -0.60876142900872 0.793353340291236 0.0
  outer loop
    vertex 6.525 48.5827894935377 3.0
    vertex 7.42591449816148 49.2740855018385 0.0
    vertex 6.525 48.5827894935377 0.0
  endloop
endfacet
facet normal -0.60876142900872 0.793353340291236 0.0
  outer loop
    vertex 7.42591449816148 49.2740855018385 0.0
    vertex 6.525 48.5827894935377 3.0
    vertex 7.42591449816148 49.2740855018385 3.0
  endloop
endfacet
facet normal -0.793353340291236 0.60876142900872 0.0
  outer loop
    vertex 8.11721050646231 50.175 3.0
    vertex 7.42591449816148 49.2740855018385 0.0
    vertex 7.42591449816148 49.2740855018385 3.0
  endloop
endfacet
facet normal -0.793353340291236 0.60876142900872 0.0
  outer loop
    vertex 7.42591449816148 49.2740855018385 0.0
    vertex 8.11721050646231 50.175 3.0
    vertex 8.11721050646231 50.175 0.0
  endloop
endfacet
facet normal -0.923879532511287 0.38268343236509 0.0
  outer loop
    vertex 8.55177734435745 51.224137153804 3.0
    vertex 8.11721050646231 50.175 0.0
    vertex 8.11721050646231 50.175 3.0
  endloop
endfacet
facet normal -0.923879532511287 0.38268343236509 0.0
  outer loop
    vertex 8.11721050646231 50.175 0.0
    vertex 8.55177734435745 51.224137153804 3.0
    vertex 8.55177734435745 51.224137153804 0.0
  endloop
endfacet
facet normal -0.99144486137381 0.130526192220052 0.0
  outer loop
    vertex 8.7 52.35 3.0
    vertex 8.55177734435745 51.224137153804 0.0
    vertex 8.55177734435745 51.224137153804 3.0
  endloop
endfacet
facet normal -0.99144486137381 0.130526192220052 0.0
  outer loop
    vertex 8.55177734435745 51.224137153804 0.0
    vertex 8.7 52.35 3.0
    vertex 8.7 52.35 0.0
  endloop
endfacet
facet normal -0.99144486137381 -0.130526192220052 -0.0
  outer loop
    vertex 8.55177734435745 53.475862846196 3.0
    vertex 8.7 52.35 0.0
    vertex 8.7 52.35 3.0
  endloop
endfacet
facet normal -0.99144486137381 -0.130526192220052 -0.0
  outer loop
    vertex 8.7 52.35 0.0
    vertex 8.55177734435745 53.475862846196 3.0
    vertex 8.55177734435745 53.475862846196 0.0
  endloop
endfacet
facet normal -0.923879532511287 -0.38268343236509 -0.0
  outer loop
    vertex 8.11721050646231 54.525 3.0
    vertex 8.55177734435745 53.475862846196 0.0
    vertex 8.55177734435745 53.475862846196 3.0
  endloop
endfacet
facet normal -0.923879532511287 -0.38268343236509 -0.0
  outer loop
    vertex 8.55177734435745 53.475862846196 0.0
    vertex 8.11721050646231 54.525 3.0
    vertex 8.11721050646231 54.525 0.0
  endloop
endfacet
facet normal -0.793353340291234 -0.608761429008722 -0.0
  outer loop
    vertex 7.42591449816149 55.4259144981615 3.0
    vertex 8.11721050646231 54.525 0.0
    vertex 8.11721050646231 54.525 3.0
  endloop
endfacet
facet normal -0.793353340291234 -0.608761429008722 -0.0
  outer loop
    vertex 8.11721050646231 54.525 0.0
    vertex 7.42591449816149 55.4259144981615 3.0
    vertex 7.42591449816149 55.4259144981615 0.0
  endloop
endfacet
facet normal -0.608761429008723 -0.793353340291233 -0.0
  outer loop
    vertex 7.42591449816149 55.4259144981615 3.0
    vertex 6.525 56.1172105064623 0.0
    vertex 7.42591449816149 55.4259144981615 0.0
  endloop
endfacet
facet normal -0.608761429008723 -0.793353340291233 -0.0
  outer loop
    vertex 6.525 56.1172105064623 0.0
    vertex 7.42591449816149 55.4259144981615 3.0
    vertex 6.525 56.1172105064623 3.0
  endloop
endfacet
facet normal -0.382683432365088 -0.923879532511288 -0.0
  outer loop
    vertex 6.525 56.1172105064623 3.0
    vertex 5.47586284619597 56.5517773443575 0.0
    vertex 6.525 56.1172105064623 0.0
  endloop
endfacet
facet normal -0.382683432365088 -0.923879532511288 -0.0
  outer loop
    vertex 5.47586284619597 56.5517773443575 0.0
    vertex 6.525 56.1172105064623 3.0
    vertex 5.47586284619597 56.5517773443575 3.0
  endloop
endfacet
facet normal -0.130526192220054 -0.99144486137381 -0.0
  outer loop
    vertex 5.47586284619597 56.5517773443575 3.0
    vertex 4.35 56.7 0.0
    vertex 5.47586284619597 56.5517773443575 0.0
  endloop
endfacet
facet normal -0.130526192220054 -0.99144486137381 -0.0
  outer loop
    vertex 4.35 56.7 0.0
    vertex 5.47586284619597 56.5517773443575 3.0
    vertex 4.35 56.7 3.0
  endloop
endfacet
facet normal 0.130526192220054 -0.99144486137381 0.0
  outer loop
    vertex 4.35 56.7 3.0
    vertex 3.22413715380404 56.5517773443575 0.0
    vertex 4.35 56.7 0.0
  endloop
endfacet
facet normal 0.130526192220054 -0.99144486137381 0.0
  outer loop
    vertex 3.22413715380404 56.5517773443575 0.0
    vertex 4.35 56.7 3.0
    vertex 3.22413715380404 56.5517773443575 3.0
  endloop
endfacet
facet normal 0.382683432365087 -0.923879532511288 0.0
  outer loop
    vertex 3.22413715380404 56.5517773443575 3.0
    vertex 2.175 56.1172105064623 0.0
    vertex 3.22413715380404 56.5517773443575 0.0
  endloop
endfacet
facet normal 0.382683432365087 -0.923879532511288 0.0
  outer loop
    vertex 2.175 56.1172105064623 0.0
    vertex 3.22413715380404 56.5517773443575 3.0
    vertex 2.175 56.1172105064623 3.0
  endloop
endfacet
facet normal 0.608761429008723 -0.793353340291234 0.0
  outer loop
    vertex 2.175 56.1172105064623 3.0
    vertex 1.27408550183852 55.4259144981615 0.0
    vertex 2.175 56.1172105064623 0.0
  endloop
endfacet
facet normal 0.608761429008723 -0.793353340291234 0.0
  outer loop
    vertex 1.27408550183852 55.4259144981615 0.0
    vertex 2.175 56.1172105064623 3.0
    vertex 1.27408550183852 55.4259144981615 3.0
  endloop
endfacet
facet normal 0.793353340291234 -0.608761429008723 0.0
  outer loop
    vertex 1.27408550183852 55.4259144981615 0.0
    vertex 0.582789493537691 54.525 3.0
    vertex 0.582789493537691 54.525 0.0
  endloop
endfacet
facet normal 0.793353340291234 -0.608761429008723 0.0
  outer loop
    vertex 0.582789493537691 54.525 3.0
    vertex 1.27408550183852 55.4259144981615 0.0
    vertex 1.27408550183852 55.4259144981615 3.0
  endloop
endfacet
facet normal 0.923879532511287 -0.38268343236509 0.0
  outer loop
    vertex 0.582789493537691 54.525 0.0
    vertex 0.148222655642551 53.475862846196 3.0
    vertex 0.148222655642551 53.475862846196 0.0
  endloop
endfacet
facet normal 0.923879532511287 -0.38268343236509 0.0
  outer loop
    vertex 0.148222655642551 53.475862846196 3.0
    vertex 0.582789493537691 54.525 0.0
    vertex 0.582789493537691 54.525 3.0
  endloop
endfacet
facet normal 0.99144486137381 -0.130526192220052 0.0
  outer loop
    vertex 0.148222655642551 53.475862846196 0.0
    vertex -2.8199664825479e-015 52.35 3.0
    vertex -2.8199664825479e-015 52.35 0.0
  endloop
endfacet
facet normal 0.99144486137381 -0.130526192220052 0.0
  outer loop
    vertex -2.8199664825479e-015 52.35 3.0
    vertex 0.148222655642551 53.475862846196 0.0
    vertex 0.148222655642551 53.475862846196 3.0
  endloop
endfacet
facet normal 0.99144486137381 0.130526192220051 0.0
  outer loop
    vertex -2.8199664825479e-015 52.35 0.0
    vertex 0.14822265564255 51.224137153804 3.0
    vertex 0.14822265564255 51.224137153804 0.0
  endloop
endfacet
facet normal 0.99144486137381 0.130526192220051 0.0
  outer loop
    vertex 0.14822265564255 51.224137153804 3.0
    vertex -2.8199664825479e-015 52.35 0.0
    vertex -2.8199664825479e-015 52.35 3.0
  endloop
endfacet
facet normal 0.923879532511287 0.382683432365089 0.0
  outer loop
    vertex 0.14822265564255 51.224137153804 0.0
    vertex 0.582789493537688 50.175 3.0
    vertex 0.582789493537688 50.175 0.0
  endloop
endfacet
facet normal 0.923879532511287 0.382683432365089 0.0
  outer loop
    vertex 0.582789493537688 50.175 3.0
    vertex 0.14822265564255 51.224137153804 0.0
    vertex 0.14822265564255 51.224137153804 3.0
  endloop
endfacet
facet normal 0.793353340291234 0.608761429008723 0.0
  outer loop
    vertex 0.582789493537688 50.175 0.0
    vertex 1.27408550183852 49.2740855018385 3.0
    vertex 1.27408550183852 49.2740855018385 0.0
  endloop
endfacet
facet normal 0.793353340291234 0.608761429008723 0.0
  outer loop
    vertex 1.27408550183852 49.2740855018385 3.0
    vertex 0.582789493537688 50.175 0.0
    vertex 0.582789493537688 50.175 3.0
  endloop
endfacet
facet normal 0.608761429008723 0.793353340291233 0.0
  outer loop
    vertex 1.27408550183852 49.2740855018385 3.0
    vertex 2.175 48.5827894935377 0.0
    vertex 1.27408550183852 49.2740855018385 0.0
  endloop
endfacet
facet normal 0.608761429008723 0.793353340291233 0.0
  outer loop
    vertex 2.175 48.5827894935377 0.0
    vertex 1.27408550183852 49.2740855018385 3.0
    vertex 2.175 48.5827894935377 3.0
  endloop
endfacet
endsolid Untitled-6400ab25
